<svg preserveAspectRatio="none" width="100%" height="100%" overflow="visible" style="display: block;" viewBox="0 0 4.02711 4.31756" fill="none" xmlns="http://www.w3.org/2000/svg">
<path id="Vector" d="M3.47707 3.71113C3.11038 4.11652 2.62254 4.31756 2.01356 4.31756C1.40458 4.31756 0.916748 4.11322 0.550052 3.71113C0.183356 3.30574 0 2.78829 0 2.15878C0 1.52927 0.183356 1.01183 0.550052 0.606435C0.916748 0.201046 1.40458 0 2.01356 0C2.62254 0 3.11038 0.204342 3.47707 0.606435C3.84377 1.01183 4.02711 1.52927 4.02711 2.15878C4.02711 2.78829 3.84377 3.30574 3.47707 3.71113ZM0.920023 3.38813C1.18195 3.70454 1.54537 3.86274 2.01356 3.86274C2.48175 3.86274 2.84518 3.70454 3.1071 3.38813C3.36903 3.07173 3.49998 2.66305 3.49998 2.16208C3.49998 1.66111 3.36903 1.24913 3.1071 0.932726C2.84518 0.613029 2.48175 0.454827 2.01356 0.454827C1.54537 0.454827 1.18195 0.613029 0.920023 0.932726C0.658098 1.25242 0.530408 1.66111 0.530408 2.16208C0.530408 2.66305 0.661372 3.07173 0.920023 3.38813Z" fill="var(--fill-0, #081120)"/>
</svg>
